<?xml version="1.0" standalone="no"?>
<!DOCTYPE svg PUBLIC "-//W3C//DTD SVG 20010904//EN"
 "http://www.w3.org/TR/2001/REC-SVG-20010904/DTD/svg10.dtd">
<svg version="1.0" xmlns="http://www.w3.org/2000/svg"
 width="781.000000pt" height="781.000000pt" viewBox="0 0 781.000000 781.000000"
 preserveAspectRatio="xMidYMid meet">

<g transform="translate(0.000000,781.000000) scale(0.100000,-0.100000)"
fill="#000000" stroke="none">
<path d="M3610 7439 c-322 -26 -717 -125 -1034 -259 -571 -240 -1104 -674
-1468 -1195 -336 -481 -543 -1051 -599 -1648 -11 -126 -7 -605 7 -689 6 -36 7
-37 38 -30 17 4 56 7 87 7 54 0 58 -2 150 -76 122 -99 301 -274 325 -319 28
-53 23 -162 -20 -378 -20 -101 -36 -192 -36 -204 0 -40 44 -110 88 -140 51
-35 285 -130 478 -194 165 -55 188 -54 255 5 49 43 102 118 208 298 111 190
129 199 454 216 266 14 278 11 349 -77 26 -33 90 -121 143 -196 52 -74 115
-156 140 -180 45 -44 47 -45 113 -45 70 0 76 2 312 102 114 48 296 138 318
156 8 6 25 33 39 60 34 67 32 114 -12 281 -40 156 -65 290 -65 349 0 36 8 48
98 145 160 173 184 197 256 262 l68 63 82 -6 c44 -4 155 -20 244 -37 90 -16
186 -30 213 -30 53 0 111 20 142 48 32 28 86 147 157 342 81 225 94 278 91
364 -1 42 -83 117 -206 190 -138 81 -256 160 -283 188 -12 14 -26 47 -32 77
-15 79 -32 417 -25 486 7 57 10 63 69 120 34 33 120 100 192 150 171 118 219
164 240 227 13 40 14 57 5 93 -27 108 -235 548 -277 586 -16 14 -48 37 -72 49
-48 27 -20 31 -332 -51 -195 -51 -266 -55 -330 -17 -56 32 -275 235 -347 319
-52 62 -53 64 -53 129 0 36 14 142 30 235 16 94 30 185 30 203 l0 32 -62 -1
c-35 -1 -110 -6 -168 -10z m-1065 -1199 c135 -13 252 -41 358 -86 389 -167
650 -503 714 -919 58 -379 -103 -810 -396 -1060 -112 -96 -244 -177 -260 -160
-5 6 -35 93 -66 195 -31 102 -63 190 -71 196 -8 6 -14 15 -14 19 0 5 -6 16
-13 24 -8 9 -24 43 -37 76 -53 135 -96 209 -144 242 -25 18 -55 48 -68 67 -18
27 -38 41 -93 61 -87 32 -337 198 -402 268 -42 45 -54 52 -108 61 l-60 11 -3
54 -3 53 34 -6 c30 -6 41 -1 88 38 67 55 94 101 109 186 18 99 23 102 59 25
37 -78 42 -77 94 18 45 82 77 176 84 251 5 51 2 69 -16 104 -36 70 -135 121
-267 137 -33 4 -72 14 -88 22 l-30 15 25 14 c65 37 258 86 379 98 71 6 87 6
195 -4z m-1104 -583 c-13 -12 -20 -15 -16 -7 14 26 28 41 33 35 3 -3 -5 -16
-17 -28z m-122 -359 c1 -39 35 -108 70 -147 26 -27 30 -36 19 -48 -8 -10 -15
-76 -20 -192 -4 -97 -14 -201 -21 -231 l-14 -55 -26 82 c-41 127 -52 206 -52
373 0 162 21 321 36 270 4 -14 7 -37 8 -52z m873 -516 c37 -30 96 -68 130 -86
34 -17 63 -36 65 -42 5 -15 -122 -104 -147 -104 -10 0 -27 -12 -37 -27 -34
-50 -73 -81 -123 -97 -59 -19 -71 -15 -64 22 4 20 -4 46 -24 88 -38 73 -56
143 -49 186 3 18 15 62 28 98 12 36 24 71 25 77 4 17 110 -45 196 -115z m-603
-438 c1 -17 4 -34 8 -38 9 -8 33 -79 29 -83 -2 -2 -20 15 -40 37 -25 28 -35
47 -32 63 3 12 8 40 12 62 6 37 8 38 14 15 5 -14 8 -39 9 -56z m991 -34 c0 -5
-5 -20 -11 -33 -10 -22 -1 -44 70 -186 45 -89 79 -166 76 -171 -5 -8 -81 -22
-192 -35 -64 -8 -70 -5 -211 112 -93 77 -111 97 -103 111 19 35 114 133 143
148 27 14 31 14 43 -2 10 -15 16 -16 27 -6 12 10 17 7 26 -12 6 -14 22 -26 42
-30 41 -8 50 -2 50 35 0 16 5 29 10 29 6 0 10 11 10 25 0 14 5 25 10 25 6 0
10 -4 10 -10z"/>
<path d="M6160 6290 c-329 -77 -580 -153 -580 -174 0 -3 11 -22 25 -42 57 -83
107 -328 109 -529 l1 -129 -100 -53 c-113 -58 -130 -76 -100 -100 16 -12 37
-14 107 -9 48 3 93 7 100 8 9 2 15 -18 19 -69 6 -86 46 -172 119 -258 46 -54
60 -88 60 -141 0 -31 -46 -60 -117 -74 -29 -5 -78 -15 -108 -21 -30 -6 -61
-17 -69 -24 -8 -8 -20 -69 -30 -152 -10 -76 -22 -163 -28 -193 -7 -30 -10
-100 -8 -155 8 -217 -3 -403 -29 -490 -40 -130 -50 -170 -57 -217 -6 -49 -16
-62 -74 -94 -42 -24 -198 -87 -257 -105 -62 -18 -104 -2 -236 88 -62 42 -131
85 -155 95 l-43 20 -55 -33 c-68 -42 -268 -238 -294 -289 -39 -77 -24 -123
105 -318 60 -92 72 -118 66 -135 -43 -112 -110 -258 -141 -306 -37 -56 -43
-61 -104 -80 -36 -11 -108 -28 -160 -37 -108 -19 -164 -46 -186 -89 -20 -39
-27 -371 -10 -435 16 -61 58 -96 128 -110 148 -29 269 -61 292 -78 29 -22 66
-91 115 -217 60 -154 61 -148 -52 -322 -110 -171 -115 -202 -46 -293 25 -34
52 -64 60 -67 23 -9 157 16 338 63 266 68 449 137 690 259 160 81 316 177 498
305 l57 41 0 143 c0 78 4 167 10 197 9 53 17 295 21 664 1 105 3 179 5 165 8
-55 34 -696 34 -820 0 -73 4 -149 10 -169 5 -20 12 -49 15 -64 l6 -28 61 52
c33 30 101 94 151 143 l90 90 -7 141 c-3 77 -10 210 -15 295 -5 111 -4 176 5
228 6 40 14 76 17 78 6 7 57 -66 86 -123 52 -103 81 -206 89 -323 l7 -85 61
80 c126 166 259 386 346 573 86 185 186 462 217 600 l9 43 -97 97 c-106 106
-154 138 -192 129 -14 -3 -65 -31 -114 -62 -122 -76 -247 -137 -258 -126 -5 5
8 49 31 102 74 176 79 215 43 369 -12 52 -40 221 -62 375 -59 414 -82 495
-135 495 -16 0 -221 98 -271 129 -26 16 -33 28 -33 52 0 28 2 30 28 24 57 -12
107 22 190 129 58 76 71 113 72 212 0 45 3 102 6 128 6 43 11 49 48 68 53 27
229 142 244 160 6 8 7 19 2 28 -12 20 -128 25 -212 10 -38 -7 -71 -10 -74 -7
-12 11 -67 222 -90 342 -14 72 -30 193 -35 270 -5 77 -12 148 -15 158 -7 22
-44 21 -144 -3z m-354 -2438 c-13 -12 -17 8 -9 44 l8 39 3 -39 c2 -21 1 -41
-2 -44z m626 -269 c-1 -66 -13 -113 -30 -113 -4 0 -5 57 -3 127 3 125 4 127
18 93 10 -21 15 -64 15 -107z m-802 -940 c0 -32 7 -125 15 -208 17 -172 18
-287 5 -434 -6 -69 -6 -160 2 -275 14 -208 15 -264 6 -386 -4 -52 -7 -107 -8
-122 0 -23 -5 -28 -24 -28 -63 0 -254 103 -346 186 -94 85 -214 299 -230 410
-9 64 3 283 21 379 34 187 248 421 465 510 89 37 94 35 94 -32z"/>
<path d="M2625 2135 c-27 -7 -70 -21 -95 -30 -25 -9 -110 -22 -190 -30 -80 -7
-157 -17 -171 -23 -50 -20 -219 -170 -219 -194 0 -13 10 -13 78 3 42 11 139
26 215 34 105 11 147 20 173 36 19 11 40 19 48 17 12 -3 308 -291 1084 -1055
l276 -273 71 0 70 0 -40 38 c-69 67 -317 303 -400 382 -44 41 -168 156 -275
255 -107 99 -238 221 -290 271 -52 49 -126 119 -165 155 -38 35 -72 66 -75 69
-3 3 -49 45 -103 94 -54 49 -96 94 -94 100 6 18 108 45 175 45 98 1 168 41
160 93 -3 22 -7 23 -93 25 -52 1 -111 -4 -140 -12z"/>
</g>
</svg>
